<svg xmlns="http://www.w3.org/2000/svg" xmlns:xlink="http://www.w3.org/1999/xlink" width="380" zoomAndPan="magnify" viewBox="0 0 285 104.999996" height="140" preserveAspectRatio="xMidYMid meet" version="1.0"><defs><g/><clipPath id="1a70153b9c"><path d="M 7.089844 19.519531 L 72 19.519531 L 72 85.519531 L 7.089844 85.519531 Z M 7.089844 19.519531 " clip-rule="nonzero"/></clipPath><clipPath id="d8f6e6eeb7"><rect x="0" width="160" y="0" height="41"/></clipPath><clipPath id="dfcca673a5"><rect x="0" width="124" y="0" height="17"/></clipPath></defs><path stroke-linecap="round" transform="matrix(0, 0.75, -0.75, 0, 97.125137, 8.79492)" fill="none" stroke-linejoin="miter" d="M 0.497398 0.500183 L 116.059907 0.500183 " stroke="#ffffff" stroke-width="1" stroke-opacity="1" stroke-miterlimit="4"/><g clip-path="url(#1a70153b9c)"><path fill="#ffffff" d="M 71.386719 82.441406 L 52.886719 45.230469 C 47.441406 50.105469 42.648438 58.652344 42.914062 65.65625 L 48.511719 76.691406 C 48.714844 77.089844 49.054688 77.394531 49.472656 77.550781 L 69.1875 84.882812 C 70.6875 85.441406 72.101562 83.875 71.386719 82.441406 Z M 38.1875 62.105469 C 38.140625 62.175781 38.097656 62.25 38.058594 62.332031 L 31.035156 76.5625 C 30.835938 76.96875 30.488281 77.28125 30.066406 77.4375 L 9.988281 84.90625 C 8.496094 85.464844 7.085938 83.914062 7.78125 82.480469 L 37.585938 20.855469 C 38.226562 19.535156 40.105469 19.523438 40.757812 20.839844 L 52.253906 43.960938 C 45.953125 48.464844 41.015625 54.761719 38.1875 62.105469 " fill-opacity="1" fill-rule="nonzero"/></g><g transform="matrix(1, 0, 0, 1, 118, 28)"><g clip-path="url(#d8f6e6eeb7)"><g fill="#ffffff" fill-opacity="1"><g transform="translate(0.489823, 30.705546)"><g><path d="M 9.046875 0.203125 C 7.578125 0.203125 6.257812 -0.0351562 5.09375 -0.515625 C 3.925781 -0.992188 2.992188 -1.695312 2.296875 -2.625 C 1.609375 -3.5625 1.242188 -4.691406 1.203125 -6.015625 L 6.40625 -6.015625 C 6.476562 -5.265625 6.734375 -4.691406 7.171875 -4.296875 C 7.617188 -3.910156 8.191406 -3.71875 8.890625 -3.71875 C 9.617188 -3.71875 10.191406 -3.882812 10.609375 -4.21875 C 11.035156 -4.550781 11.25 -5.015625 11.25 -5.609375 C 11.25 -6.097656 11.078125 -6.503906 10.734375 -6.828125 C 10.398438 -7.160156 9.988281 -7.429688 9.5 -7.640625 C 9.019531 -7.847656 8.332031 -8.085938 7.4375 -8.359375 C 6.144531 -8.753906 5.085938 -9.148438 4.265625 -9.546875 C 3.441406 -9.953125 2.734375 -10.546875 2.140625 -11.328125 C 1.554688 -12.109375 1.265625 -13.128906 1.265625 -14.390625 C 1.265625 -16.253906 1.941406 -17.71875 3.296875 -18.78125 C 4.648438 -19.84375 6.410156 -20.375 8.578125 -20.375 C 10.796875 -20.375 12.582031 -19.84375 13.9375 -18.78125 C 15.289062 -17.71875 16.015625 -16.242188 16.109375 -14.359375 L 10.8125 -14.359375 C 10.769531 -15.003906 10.53125 -15.515625 10.09375 -15.890625 C 9.65625 -16.265625 9.09375 -16.453125 8.40625 -16.453125 C 7.820312 -16.453125 7.347656 -16.289062 6.984375 -15.96875 C 6.617188 -15.65625 6.4375 -15.207031 6.4375 -14.625 C 6.4375 -13.96875 6.738281 -13.457031 7.34375 -13.09375 C 7.957031 -12.738281 8.914062 -12.351562 10.21875 -11.9375 C 11.507812 -11.488281 12.5625 -11.066406 13.375 -10.671875 C 14.1875 -10.273438 14.882812 -9.691406 15.46875 -8.921875 C 16.0625 -8.160156 16.359375 -7.179688 16.359375 -5.984375 C 16.359375 -4.835938 16.066406 -3.796875 15.484375 -2.859375 C 14.910156 -1.921875 14.066406 -1.175781 12.953125 -0.625 C 11.847656 -0.0703125 10.546875 0.203125 9.046875 0.203125 Z M 9.046875 0.203125 "/></g></g></g><g fill="#ffffff" fill-opacity="1"><g transform="translate(18.084358, 30.705546)"><g><path d="M 6.671875 -16.171875 L 6.671875 -12.109375 L 13.21875 -12.109375 L 13.21875 -8.328125 L 6.671875 -8.328125 L 6.671875 -3.921875 L 14.078125 -3.921875 L 14.078125 0 L 1.78125 0 L 1.78125 -20.078125 L 14.078125 -20.078125 L 14.078125 -16.171875 Z M 6.671875 -16.171875 "/></g></g></g><g fill="#ffffff" fill-opacity="1"><g transform="translate(33.561829, 30.705546)"><g><path d="M 13.9375 -10.296875 C 15.09375 -10.046875 16.023438 -9.46875 16.734375 -8.5625 C 17.441406 -7.65625 17.796875 -6.625 17.796875 -5.46875 C 17.796875 -3.789062 17.207031 -2.457031 16.03125 -1.46875 C 14.863281 -0.488281 13.226562 0 11.125 0 L 1.78125 0 L 1.78125 -20.078125 L 10.8125 -20.078125 C 12.851562 -20.078125 14.453125 -19.609375 15.609375 -18.671875 C 16.765625 -17.742188 17.34375 -16.476562 17.34375 -14.875 C 17.34375 -13.695312 17.03125 -12.710938 16.40625 -11.921875 C 15.789062 -11.140625 14.96875 -10.597656 13.9375 -10.296875 Z M 6.671875 -11.953125 L 9.875 -11.953125 C 10.675781 -11.953125 11.289062 -12.128906 11.71875 -12.484375 C 12.144531 -12.835938 12.359375 -13.359375 12.359375 -14.046875 C 12.359375 -14.734375 12.144531 -15.257812 11.71875 -15.625 C 11.289062 -15.988281 10.675781 -16.171875 9.875 -16.171875 L 6.671875 -16.171875 Z M 10.265625 -3.953125 C 11.085938 -3.953125 11.722656 -4.132812 12.171875 -4.5 C 12.617188 -4.875 12.84375 -5.414062 12.84375 -6.125 C 12.84375 -6.832031 12.609375 -7.382812 12.140625 -7.78125 C 11.671875 -8.175781 11.03125 -8.375 10.21875 -8.375 L 6.671875 -8.375 L 6.671875 -3.953125 Z M 10.265625 -3.953125 "/></g></g></g><g fill="#ffffff" fill-opacity="1"><g transform="translate(52.415166, 30.705546)"><g><path d="M 14.28125 -3.546875 L 6.78125 -3.546875 L 5.578125 0 L 0.453125 0 L 7.71875 -20.078125 L 13.390625 -20.078125 L 20.65625 0 L 15.484375 0 Z M 13.015625 -7.328125 L 10.53125 -14.671875 L 8.0625 -7.328125 Z M 13.015625 -7.328125 "/></g></g></g><g fill="#ffffff" fill-opacity="1"><g transform="translate(73.500008, 30.705546)"><g><path d="M 9.046875 0.203125 C 7.578125 0.203125 6.257812 -0.0351562 5.09375 -0.515625 C 3.925781 -0.992188 2.992188 -1.695312 2.296875 -2.625 C 1.609375 -3.5625 1.242188 -4.691406 1.203125 -6.015625 L 6.40625 -6.015625 C 6.476562 -5.265625 6.734375 -4.691406 7.171875 -4.296875 C 7.617188 -3.910156 8.191406 -3.71875 8.890625 -3.71875 C 9.617188 -3.71875 10.191406 -3.882812 10.609375 -4.21875 C 11.035156 -4.550781 11.25 -5.015625 11.25 -5.609375 C 11.25 -6.097656 11.078125 -6.503906 10.734375 -6.828125 C 10.398438 -7.160156 9.988281 -7.429688 9.5 -7.640625 C 9.019531 -7.847656 8.332031 -8.085938 7.4375 -8.359375 C 6.144531 -8.753906 5.085938 -9.148438 4.265625 -9.546875 C 3.441406 -9.953125 2.734375 -10.546875 2.140625 -11.328125 C 1.554688 -12.109375 1.265625 -13.128906 1.265625 -14.390625 C 1.265625 -16.253906 1.941406 -17.71875 3.296875 -18.78125 C 4.648438 -19.84375 6.410156 -20.375 8.578125 -20.375 C 10.796875 -20.375 12.582031 -19.84375 13.9375 -18.78125 C 15.289062 -17.71875 16.015625 -16.242188 16.109375 -14.359375 L 10.8125 -14.359375 C 10.769531 -15.003906 10.53125 -15.515625 10.09375 -15.890625 C 9.65625 -16.265625 9.09375 -16.453125 8.40625 -16.453125 C 7.820312 -16.453125 7.347656 -16.289062 6.984375 -15.96875 C 6.617188 -15.65625 6.4375 -15.207031 6.4375 -14.625 C 6.4375 -13.96875 6.738281 -13.457031 7.34375 -13.09375 C 7.957031 -12.738281 8.914062 -12.351562 10.21875 -11.9375 C 11.507812 -11.488281 12.5625 -11.066406 13.375 -10.671875 C 14.1875 -10.273438 14.882812 -9.691406 15.46875 -8.921875 C 16.0625 -8.160156 16.359375 -7.179688 16.359375 -5.984375 C 16.359375 -4.835938 16.066406 -3.796875 15.484375 -2.859375 C 14.910156 -1.921875 14.066406 -1.175781 12.953125 -0.625 C 11.847656 -0.0703125 10.546875 0.203125 9.046875 0.203125 Z M 9.046875 0.203125 "/></g></g></g><g fill="#ffffff" fill-opacity="1"><g transform="translate(91.094543, 30.705546)"><g><path d="M 16.21875 -20.078125 L 16.21875 -16.171875 L 10.90625 -16.171875 L 10.90625 0 L 6.015625 0 L 6.015625 -16.171875 L 0.6875 -16.171875 L 0.6875 -20.078125 Z M 16.21875 -20.078125 "/></g></g></g><g fill="#ffffff" fill-opacity="1"><g transform="translate(108.002462, 30.705546)"><g><path d="M 6.671875 -20.078125 L 6.671875 0 L 1.78125 0 L 1.78125 -20.078125 Z M 6.671875 -20.078125 "/></g></g></g><g fill="#ffffff" fill-opacity="1"><g transform="translate(116.442115, 30.705546)"><g><path d="M 14.28125 -3.546875 L 6.78125 -3.546875 L 5.578125 0 L 0.453125 0 L 7.71875 -20.078125 L 13.390625 -20.078125 L 20.65625 0 L 15.484375 0 Z M 13.015625 -7.328125 L 10.53125 -14.671875 L 8.0625 -7.328125 Z M 13.015625 -7.328125 "/></g></g></g><g fill="#ffffff" fill-opacity="1"><g transform="translate(137.526957, 30.705546)"><g><path d="M 19.734375 0 L 14.84375 0 L 6.671875 -12.390625 L 6.671875 0 L 1.78125 0 L 1.78125 -20.078125 L 6.671875 -20.078125 L 14.84375 -7.640625 L 14.84375 -20.078125 L 19.734375 -20.078125 Z M 19.734375 0 "/></g></g></g></g></g><g transform="matrix(1, 0, 0, 1, 139, 63)"><g clip-path="url(#dfcca673a5)"><g fill="#ffffff" fill-opacity="1"><g transform="translate(0.849065, 12.029565)"><g><path d="M 0.484375 -3.953125 C 0.484375 -4.722656 0.65625 -5.414062 1 -6.03125 C 1.351562 -6.644531 1.828125 -7.125 2.421875 -7.46875 C 3.023438 -7.820312 3.691406 -8 4.421875 -8 C 5.285156 -8 6.035156 -7.789062 6.671875 -7.375 C 7.316406 -6.957031 7.789062 -6.367188 8.09375 -5.609375 L 6.859375 -5.609375 C 6.640625 -6.085938 6.320312 -6.453125 5.90625 -6.703125 C 5.5 -6.960938 5.003906 -7.09375 4.421875 -7.09375 C 3.878906 -7.09375 3.382812 -6.960938 2.9375 -6.703125 C 2.5 -6.453125 2.15625 -6.085938 1.90625 -5.609375 C 1.664062 -5.140625 1.546875 -4.585938 1.546875 -3.953125 C 1.546875 -3.328125 1.664062 -2.773438 1.90625 -2.296875 C 2.15625 -1.828125 2.5 -1.460938 2.9375 -1.203125 C 3.382812 -0.953125 3.878906 -0.828125 4.421875 -0.828125 C 5.003906 -0.828125 5.5 -0.953125 5.90625 -1.203125 C 6.320312 -1.460938 6.640625 -1.828125 6.859375 -2.296875 L 8.09375 -2.296875 C 7.789062 -1.546875 7.316406 -0.960938 6.671875 -0.546875 C 6.035156 -0.140625 5.285156 0.0625 4.421875 0.0625 C 3.691406 0.0625 3.023438 -0.109375 2.421875 -0.453125 C 1.828125 -0.796875 1.351562 -1.269531 1 -1.875 C 0.65625 -2.488281 0.484375 -3.179688 0.484375 -3.953125 Z M 0.484375 -3.953125 "/></g></g></g><g fill="#ffffff" fill-opacity="1"><g transform="translate(12.386816, 12.029565)"><g><path d="M 4.453125 0.078125 C 3.722656 0.078125 3.054688 -0.09375 2.453125 -0.4375 C 1.847656 -0.78125 1.367188 -1.257812 1.015625 -1.875 C 0.660156 -2.488281 0.484375 -3.179688 0.484375 -3.953125 C 0.484375 -4.722656 0.660156 -5.414062 1.015625 -6.03125 C 1.367188 -6.644531 1.847656 -7.125 2.453125 -7.46875 C 3.054688 -7.8125 3.722656 -7.984375 4.453125 -7.984375 C 5.191406 -7.984375 5.863281 -7.8125 6.46875 -7.46875 C 7.070312 -7.125 7.546875 -6.644531 7.890625 -6.03125 C 8.242188 -5.425781 8.421875 -4.734375 8.421875 -3.953125 C 8.421875 -3.171875 8.242188 -2.472656 7.890625 -1.859375 C 7.546875 -1.253906 7.070312 -0.78125 6.46875 -0.4375 C 5.863281 -0.09375 5.191406 0.078125 4.453125 0.078125 Z M 4.453125 -0.8125 C 5.003906 -0.8125 5.5 -0.941406 5.9375 -1.203125 C 6.382812 -1.460938 6.734375 -1.828125 6.984375 -2.296875 C 7.234375 -2.773438 7.359375 -3.328125 7.359375 -3.953125 C 7.359375 -4.585938 7.234375 -5.140625 6.984375 -5.609375 C 6.734375 -6.085938 6.390625 -6.453125 5.953125 -6.703125 C 5.515625 -6.960938 5.015625 -7.09375 4.453125 -7.09375 C 3.890625 -7.09375 3.390625 -6.960938 2.953125 -6.703125 C 2.515625 -6.453125 2.171875 -6.085938 1.921875 -5.609375 C 1.671875 -5.140625 1.546875 -4.585938 1.546875 -3.953125 C 1.546875 -3.328125 1.671875 -2.773438 1.921875 -2.296875 C 2.171875 -1.828125 2.515625 -1.460938 2.953125 -1.203125 C 3.398438 -0.941406 3.898438 -0.8125 4.453125 -0.8125 Z M 4.453125 -0.8125 "/></g></g></g><g fill="#ffffff" fill-opacity="1"><g transform="translate(24.083042, 12.029565)"><g><path d="M 7.078125 0 L 6.046875 0 L 1.90625 -6.28125 L 1.90625 0 L 0.875 0 L 0.875 -7.90625 L 1.90625 -7.90625 L 6.046875 -1.625 L 6.046875 -7.90625 L 7.078125 -7.90625 Z M 7.078125 0 "/></g></g></g><g fill="#ffffff" fill-opacity="1"><g transform="translate(34.8397, 12.029565)"><g><path d="M 5.734375 -7.890625 L 5.734375 -7.0625 L 3.578125 -7.0625 L 3.578125 0 L 2.546875 0 L 2.546875 -7.0625 L 0.390625 -7.0625 L 0.390625 -7.890625 Z M 5.734375 -7.890625 "/></g></g></g><g fill="#ffffff" fill-opacity="1"><g transform="translate(43.7625, 12.029565)"><g><path d="M 5.546875 -1.75 L 2.09375 -1.75 L 1.46875 0 L 0.375 0 L 3.234375 -7.84375 L 4.421875 -7.84375 L 7.265625 0 L 6.171875 0 Z M 5.25 -2.59375 L 3.8125 -6.578125 L 2.390625 -2.59375 Z M 5.25 -2.59375 "/></g></g></g><g fill="#ffffff" fill-opacity="1"><g transform="translate(54.190879, 12.029565)"><g><path d="M 4.828125 -4.0625 C 5.109375 -4.019531 5.367188 -3.90625 5.609375 -3.71875 C 5.847656 -3.53125 6.035156 -3.296875 6.171875 -3.015625 C 6.316406 -2.734375 6.390625 -2.4375 6.390625 -2.125 C 6.390625 -1.71875 6.285156 -1.351562 6.078125 -1.03125 C 5.878906 -0.71875 5.582031 -0.46875 5.1875 -0.28125 C 4.800781 -0.09375 4.34375 0 3.8125 0 L 0.875 0 L 0.875 -7.890625 L 3.703125 -7.890625 C 4.242188 -7.890625 4.703125 -7.800781 5.078125 -7.625 C 5.453125 -7.445312 5.734375 -7.207031 5.921875 -6.90625 C 6.109375 -6.601562 6.203125 -6.265625 6.203125 -5.890625 C 6.203125 -5.421875 6.078125 -5.03125 5.828125 -4.71875 C 5.578125 -4.414062 5.242188 -4.195312 4.828125 -4.0625 Z M 1.90625 -4.484375 L 3.640625 -4.484375 C 4.117188 -4.484375 4.488281 -4.597656 4.75 -4.828125 C 5.019531 -5.054688 5.15625 -5.367188 5.15625 -5.765625 C 5.15625 -6.160156 5.019531 -6.472656 4.75 -6.703125 C 4.488281 -6.929688 4.109375 -7.046875 3.609375 -7.046875 L 1.90625 -7.046875 Z M 3.734375 -0.84375 C 4.242188 -0.84375 4.640625 -0.960938 4.921875 -1.203125 C 5.210938 -1.453125 5.359375 -1.789062 5.359375 -2.21875 C 5.359375 -2.65625 5.207031 -3 4.90625 -3.25 C 4.601562 -3.507812 4.195312 -3.640625 3.6875 -3.640625 L 1.90625 -3.640625 L 1.90625 -0.84375 Z M 3.734375 -0.84375 "/></g></g></g><g fill="#ffffff" fill-opacity="1"><g transform="translate(63.928734, 12.029565)"><g><path d="M 1.90625 -7.890625 L 1.90625 0 L 0.875 0 L 0.875 -7.890625 Z M 1.90625 -7.890625 "/></g></g></g><g fill="#ffffff" fill-opacity="1"><g transform="translate(69.512105, 12.029565)"><g><path d="M 1.90625 -0.84375 L 4.671875 -0.84375 L 4.671875 0 L 0.875 0 L 0.875 -7.890625 L 1.90625 -7.890625 Z M 1.90625 -0.84375 "/></g></g></g><g fill="#ffffff" fill-opacity="1"><g transform="translate(77.201021, 12.029565)"><g><path d="M 1.90625 -7.890625 L 1.90625 0 L 0.875 0 L 0.875 -7.890625 Z M 1.90625 -7.890625 "/></g></g></g><g fill="#ffffff" fill-opacity="1"><g transform="translate(82.784392, 12.029565)"><g><path d="M 3.328125 -7.890625 C 4.191406 -7.890625 4.9375 -7.726562 5.5625 -7.40625 C 6.195312 -7.09375 6.679688 -6.632812 7.015625 -6.03125 C 7.347656 -5.4375 7.515625 -4.738281 7.515625 -3.9375 C 7.515625 -3.125 7.347656 -2.421875 7.015625 -1.828125 C 6.679688 -1.234375 6.195312 -0.78125 5.5625 -0.46875 C 4.9375 -0.15625 4.191406 0 3.328125 0 L 0.875 0 L 0.875 -7.890625 Z M 3.328125 -0.84375 C 4.347656 -0.84375 5.125 -1.113281 5.65625 -1.65625 C 6.195312 -2.195312 6.46875 -2.957031 6.46875 -3.9375 C 6.46875 -4.914062 6.195312 -5.679688 5.65625 -6.234375 C 5.113281 -6.785156 4.335938 -7.0625 3.328125 -7.0625 L 1.90625 -7.0625 L 1.90625 -0.84375 Z M 3.328125 -0.84375 "/></g></g></g><g fill="#ffffff" fill-opacity="1"><g transform="translate(93.586336, 12.029565)"><g><path d="M 5.546875 -1.75 L 2.09375 -1.75 L 1.46875 0 L 0.375 0 L 3.234375 -7.84375 L 4.421875 -7.84375 L 7.265625 0 L 6.171875 0 Z M 5.25 -2.59375 L 3.8125 -6.578125 L 2.390625 -2.59375 Z M 5.25 -2.59375 "/></g></g></g><g fill="#ffffff" fill-opacity="1"><g transform="translate(104.014714, 12.029565)"><g><path d="M 3.328125 -7.890625 C 4.191406 -7.890625 4.9375 -7.726562 5.5625 -7.40625 C 6.195312 -7.09375 6.679688 -6.632812 7.015625 -6.03125 C 7.347656 -5.4375 7.515625 -4.738281 7.515625 -3.9375 C 7.515625 -3.125 7.347656 -2.421875 7.015625 -1.828125 C 6.679688 -1.234375 6.195312 -0.78125 5.5625 -0.46875 C 4.9375 -0.15625 4.191406 0 3.328125 0 L 0.875 0 L 0.875 -7.890625 Z M 3.328125 -0.84375 C 4.347656 -0.84375 5.125 -1.113281 5.65625 -1.65625 C 6.195312 -2.195312 6.46875 -2.957031 6.46875 -3.9375 C 6.46875 -4.914062 6.195312 -5.679688 5.65625 -6.234375 C 5.113281 -6.785156 4.335938 -7.0625 3.328125 -7.0625 L 1.90625 -7.0625 L 1.90625 -0.84375 Z M 3.328125 -0.84375 "/></g></g></g><g fill="#ffffff" fill-opacity="1"><g transform="translate(114.816658, 12.029565)"><g><path d="M 1.90625 -7.0625 L 1.90625 -4.421875 L 4.78125 -4.421875 L 4.78125 -3.5625 L 1.90625 -3.5625 L 1.90625 -0.84375 L 5.125 -0.84375 L 5.125 0 L 0.875 0 L 0.875 -7.90625 L 5.125 -7.90625 L 5.125 -7.0625 Z M 1.90625 -7.0625 "/></g></g></g></g></g></svg>