<svg xmlns="http://www.w3.org/2000/svg" xmlns:xlink="http://www.w3.org/1999/xlink" viewBox="0,0,256,256" width="480px" height="480px" fill-rule="nonzero"><defs><linearGradient x1="18" y1="46.693" x2="18" y2="9.532" gradientUnits="userSpaceOnUse" id="color-1"><stop offset="0" stop-color="#0363eb"></stop><stop offset="0.12" stop-color="#0363eb"></stop><stop offset="0.416" stop-color="#0363eb"></stop><stop offset="0.672" stop-color="#0363eb"></stop><stop offset="0.875" stop-color="#0363eb"></stop><stop offset="1" stop-color="#0363eb"></stop></linearGradient><radialGradient cx="28.924" cy="22.426" r="20.803" gradientUnits="userSpaceOnUse" id="color-2"><stop offset="0.8" stop-color="#0262eb"></stop><stop offset="1" stop-color="#0666fd" stop-opacity="0"></stop></radialGradient><linearGradient x1="7.873" y1="35.104" x2="33.48" y2="19.705" gradientUnits="userSpaceOnUse" id="color-3"><stop offset="0" stop-color="#ccfbff" stop-opacity="0.4"></stop><stop offset="1" stop-color="#a6f8ff" stop-opacity="0.34118"></stop></linearGradient><linearGradient x1="7.971" y1="36.95" x2="35.873" y2="17.516" gradientUnits="userSpaceOnUse" id="color-4"><stop offset="0" stop-color="#ffffff" stop-opacity="0.2"></stop><stop offset="1" stop-color="#1676ee" stop-opacity="0.2"></stop></linearGradient></defs><g fill="none" fill-rule="nonzero" stroke="none" stroke-width="1" stroke-linecap="butt" stroke-linejoin="miter" stroke-miterlimit="10" stroke-dasharray="" stroke-dashoffset="0" font-family="none" font-weight="none" font-size="none" text-anchor="none" style="mix-blend-mode: normal"><g transform="scale(5.33333,5.33333)"><path d="M35.789,26.256c0.376,-0.498 0.234,-1.212 -0.304,-1.528l-2.287,-1.343c-0.402,-0.236 -0.599,-0.71 -0.481,-1.162l0.668,-2.566c0.157,-0.604 -0.248,-1.209 -0.866,-1.295l-2.626,-0.365c-0.462,-0.064 -0.825,-0.427 -0.889,-0.889l-0.365,-2.626c-0.086,-0.618 -0.692,-1.023 -1.295,-0.866l-2.566,0.668c-0.451,0.117 -0.926,-0.079 -1.162,-0.481l-1.343,-2.287c-0.316,-0.538 -1.03,-0.68 -1.528,-0.304l-2.115,1.599c-0.372,0.281 -0.885,0.281 -1.258,0l-1.812,-1.369c-2.821,3.033 -4.56,7.088 -4.56,11.558c0,9.389 7.611,17 17,17c1.838,0 3.601,-0.306 5.256,-0.85c0.144,-0.233 0.203,-0.519 0.128,-0.807l-0.668,-2.566c-0.117,-0.451 0.079,-0.926 0.481,-1.162l2.287,-1.343c0.538,-0.316 0.68,-1.03 0.304,-1.528l-1.599,-2.115c-0.281,-0.372 -0.281,-0.885 0,-1.258z" fill="#0363eb" opacity="0.05"></path><path d="M35.212,26.345c0.364,-0.482 0.227,-1.173 -0.294,-1.478l-2.213,-1.299c-0.389,-0.228 -0.579,-0.687 -0.466,-1.124l0.646,-2.483c0.152,-0.584 -0.24,-1.17 -0.837,-1.253l-2.541,-0.353c-0.447,-0.062 -0.798,-0.413 -0.86,-0.86l-0.353,-2.541c-0.083,-0.598 -0.669,-0.989 -1.253,-0.837l-2.483,0.646c-0.437,0.114 -0.896,-0.077 -1.124,-0.466l-1.299,-2.213c-0.306,-0.521 -0.997,-0.658 -1.478,-0.294l-2.047,1.547c-0.36,0.272 -0.857,0.272 -1.217,0l-2.047,-1.547c-0.022,-0.016 -0.048,-0.018 -0.071,-0.033c-2.652,2.996 -4.275,6.926 -4.275,11.243c0,9.389 7.611,17 17,17c0.305,0 0.607,-0.017 0.908,-0.033c0.155,-0.168 0.361,-0.287 0.599,-0.32l2.541,-0.353c0.598,-0.083 0.989,-0.669 0.837,-1.253l-0.646,-2.483c-0.114,-0.437 0.077,-0.896 0.466,-1.124l2.213,-1.299c0.521,-0.306 0.658,-0.997 0.294,-1.478l-1.547,-2.047c-0.272,-0.36 -0.272,-0.857 0,-1.217z" fill="#0363eb" opacity="0.1"></path><path d="M34.636,26.434c0.352,-0.465 0.219,-1.134 -0.284,-1.429l-2.139,-1.256c-0.376,-0.221 -0.56,-0.664 -0.45,-1.086l0.624,-2.4c0.147,-0.565 -0.232,-1.131 -0.809,-1.211l-2.456,-0.342c-0.432,-0.06 -0.771,-0.4 -0.832,-0.832l-0.342,-2.456c-0.08,-0.578 -0.647,-0.956 -1.211,-0.809l-2.4,0.624c-0.422,0.11 -0.866,-0.074 -1.086,-0.45l-1.256,-2.139c-0.295,-0.503 -0.964,-0.636 -1.429,-0.284l-1.978,1.495c-0.348,0.263 -0.828,0.263 -1.176,0l-1.978,-1.495c-0.167,-0.126 -0.36,-0.17 -0.553,-0.176c-2.425,2.938 -3.881,6.705 -3.881,10.812c0,9.389 7.611,17 17,17c0.112,0 0.221,-0.01 0.332,-0.012c0.106,-0.364 0.406,-0.644 0.79,-0.698l2.456,-0.342c0.578,-0.08 0.956,-0.647 0.809,-1.211l-0.624,-2.4c-0.11,-0.422 0.074,-0.866 0.45,-1.086l2.139,-1.256c0.503,-0.295 0.636,-0.964 0.284,-1.429l-1.495,-1.978c-0.263,-0.348 -0.263,-0.828 0,-1.176z" fill="#0363eb" opacity="0.2"></path><path d="M34.06,26.523c0.34,-0.449 0.211,-1.094 -0.274,-1.379l-2.064,-1.212c-0.363,-0.213 -0.54,-0.641 -0.434,-1.049l0.603,-2.317c0.142,-0.545 -0.224,-1.092 -0.781,-1.169l-2.371,-0.33c-0.417,-0.058 -0.745,-0.386 -0.803,-0.803l-0.33,-2.371c-0.078,-0.558 -0.624,-0.923 -1.169,-0.781l-2.317,0.603c-0.407,0.106 -0.836,-0.071 -1.049,-0.434l-1.212,-2.064c-0.285,-0.486 -0.93,-0.614 -1.379,-0.274l-1.91,1.443c-0.336,0.254 -0.799,0.254 -1.135,0l-1.91,-1.443c-0.449,-0.34 -1.094,-0.211 -1.379,0.274l-1.212,2.064c-0.041,0.07 -0.096,0.126 -0.151,0.181c-1.132,2.273 -1.783,4.827 -1.783,7.538c0,9.354 7.557,16.939 16.898,16.995l0.036,-0.258c0.058,-0.417 0.386,-0.745 0.803,-0.803l2.371,-0.33c0.558,-0.078 0.923,-0.624 0.781,-1.169l-0.603,-2.317c-0.106,-0.407 0.071,-0.836 0.434,-1.049l2.064,-1.212c0.486,-0.285 0.614,-0.93 0.274,-1.379l-1.443,-1.91c-0.254,-0.336 -0.254,-0.799 0,-1.135z" fill="#0363eb" opacity="0.3"></path><path d="M33.483,26.612c0.327,-0.433 0.204,-1.055 -0.265,-1.33l-1.99,-1.169c-0.35,-0.206 -0.521,-0.618 -0.419,-1.011l0.581,-2.234c0.137,-0.526 -0.216,-1.053 -0.753,-1.127l-2.286,-0.318c-0.402,-0.056 -0.718,-0.372 -0.774,-0.774l-0.318,-2.286c-0.075,-0.538 -0.602,-0.89 -1.127,-0.753l-2.234,0.581c-0.393,0.102 -0.806,-0.069 -1.011,-0.419l-1.169,-1.99c-0.275,-0.468 -0.897,-0.592 -1.33,-0.265l-1.841,1.392c-0.324,0.245 -0.771,0.245 -1.094,0l-1.841,-1.392c-0.433,-0.327 -1.055,-0.204 -1.33,0.265l-1.169,1.99c-0.15,0.256 -0.412,0.413 -0.695,0.441c-0.908,2.08 -1.418,4.373 -1.418,6.787c0,9.217 7.339,16.702 16.49,16.974l0.087,-0.623c0.056,-0.402 0.372,-0.718 0.774,-0.774l2.286,-0.318c0.538,-0.075 0.89,-0.602 0.753,-1.127l-0.581,-2.234c-0.102,-0.393 0.069,-0.806 0.419,-1.011l1.99,-1.169c0.468,-0.275 0.592,-0.897 0.265,-1.33l-1.392,-1.841c-0.245,-0.324 -0.245,-0.771 0,-1.094z" fill="#0363eb" opacity="0.4"></path><path d="M32.906,26.7c0.315,-0.417 0.196,-1.016 -0.255,-1.28l-1.916,-1.125c-0.337,-0.198 -0.502,-0.595 -0.403,-0.974l0.56,-2.151c0.132,-0.506 -0.208,-1.013 -0.725,-1.085l-2.201,-0.306c-0.387,-0.054 -0.691,-0.358 -0.745,-0.745l-0.306,-2.201c-0.072,-0.518 -0.58,-0.857 -1.085,-0.725l-2.151,0.56c-0.378,0.098 -0.776,-0.066 -0.974,-0.403l-1.125,-1.916c-0.265,-0.451 -0.863,-0.57 -1.28,-0.255l-1.773,1.34c-0.312,0.236 -0.742,0.236 -1.054,0l-1.773,-1.34c-0.417,-0.315 -1.016,-0.196 -1.28,0.255l-1.125,1.916c-0.198,0.337 -0.595,0.502 -0.974,0.403l-0.082,-0.021c-0.792,1.964 -1.239,4.105 -1.239,6.353c0,9.079 7.123,16.475 16.083,16.954l0.137,-0.988c0.054,-0.387 0.358,-0.691 0.745,-0.745l2.201,-0.306c0.518,-0.072 0.857,-0.58 0.725,-1.085l-0.56,-2.151c-0.098,-0.378 0.066,-0.776 0.403,-0.974l1.916,-1.125c0.451,-0.265 0.57,-0.863 0.255,-1.28l-1.34,-1.773c-0.236,-0.312 -0.236,-0.742 0,-1.054z" fill="#0363eb" opacity="0.5"></path><path d="M26.864,19.42l-0.294,-2.116c-0.069,-0.498 -0.557,-0.824 -1.043,-0.697l-2.067,0.538c-0.364,0.095 -0.746,-0.064 -0.936,-0.388l-1.081,-1.842c-0.254,-0.433 -0.83,-0.548 -1.231,-0.245l-1.704,1.288c-0.3,0.227 -0.713,0.227 -1.013,0l-1.704,-1.288c-0.401,-0.303 -0.976,-0.189 -1.231,0.245l-1.082,1.842c-0.19,0.324 -0.572,0.482 -0.936,0.388l-0.442,-0.115c-0.7,1.86 -1.1,3.866 -1.1,5.97c0,8.942 6.908,16.255 15.676,16.933l0.188,-1.353c0.052,-0.372 0.344,-0.665 0.716,-0.716l2.116,-0.294c0.498,-0.069 0.824,-0.557 0.697,-1.044l-0.538,-2.067c-0.095,-0.364 0.064,-0.746 0.388,-0.936l1.842,-1.082c0.433,-0.254 0.548,-0.83 0.245,-1.231l-1.288,-1.704c-0.227,-0.3 -0.227,-0.713 0,-1.013l1.288,-1.704c0.303,-0.401 0.189,-0.976 -0.245,-1.231l-1.842,-1.081c-0.324,-0.19 -0.482,-0.572 -0.388,-0.936l0.538,-2.067c0.127,-0.486 -0.199,-0.974 -0.697,-1.043l-2.116,-0.294c-0.372,-0.053 -0.664,-0.345 -0.716,-0.717z" fill="#0363eb" opacity="0.6"></path><path d="M17.494,15.958l-1.704,-1.288c-0.401,-0.303 -0.976,-0.189 -1.231,0.245l-1.082,1.842c-0.19,0.324 -0.572,0.482 -0.936,0.388l-0.455,-0.118c-0.698,1.858 -1.086,3.869 -1.086,5.973c0,8.942 6.908,16.255 15.676,16.933l0.188,-1.353c0.052,-0.372 0.344,-0.665 0.716,-0.716l2.116,-0.294c0.498,-0.069 0.824,-0.557 0.697,-1.044l-0.538,-2.067c-0.095,-0.364 0.064,-0.746 0.388,-0.936l1.842,-1.082c0.433,-0.254 0.548,-0.83 0.245,-1.231l-1.288,-1.704c-0.227,-0.3 -0.227,-0.713 0,-1.013l1.288,-1.704c0.303,-0.401 0.189,-0.976 -0.245,-1.231l-1.842,-1.081c-0.324,-0.19 -0.482,-0.572 -0.388,-0.936l0.538,-2.067c0.127,-0.486 -0.199,-0.974 -0.697,-1.043l-2.116,-0.294c-0.372,-0.052 -0.665,-0.344 -0.716,-0.716l-0.294,-2.116c-0.069,-0.498 -0.557,-0.824 -1.043,-0.697l-2.067,0.538c-0.364,0.095 -0.746,-0.064 -0.936,-0.388l-1.081,-1.842c-0.254,-0.433 -0.83,-0.548 -1.231,-0.245l-1.704,1.288c-0.301,0.226 -0.715,0.226 -1.014,-0.001z" fill="#0363eb" opacity="0.8"></path><path d="M18.506,15.958l1.704,-1.288c0.401,-0.303 0.976,-0.189 1.231,0.245l1.082,1.842c0.19,0.324 0.572,0.482 0.936,0.388l2.067,-0.538c0.486,-0.127 0.974,0.199 1.043,0.697l0.294,2.116c0.052,0.372 0.344,0.665 0.716,0.716l2.116,0.294c0.498,0.069 0.824,0.557 0.697,1.043l-0.538,2.067c-0.095,0.364 0.064,0.746 0.388,0.936l1.842,1.082c0.433,0.254 0.548,0.83 0.245,1.231l-1.288,1.704c-0.226,0.3 -0.226,0.713 0,1.013l1.288,1.704c0.303,0.401 0.189,0.976 -0.245,1.231l-1.842,1.082c-0.324,0.19 -0.482,0.572 -0.388,0.936l0.538,2.067c0.127,0.486 -0.199,0.974 -0.697,1.043l-2.116,0.294c-0.372,0.052 -0.665,0.344 -0.716,0.716l-0.294,2.116c-0.069,0.498 -0.557,0.824 -1.043,0.697l-2.067,-0.538c-0.364,-0.095 -0.746,0.064 -0.936,0.388l-1.082,1.842c-0.254,0.433 -0.83,0.548 -1.231,0.245l-1.704,-1.288c-0.3,-0.226 -0.713,-0.226 -1.013,0l-1.704,1.288c-0.401,0.303 -0.976,0.189 -1.231,-0.245l-1.082,-1.842c-0.19,-0.324 -0.572,-0.482 -0.936,-0.388l-2.067,0.538c-0.486,0.128 -0.973,-0.198 -1.043,-0.696l-0.294,-2.116c-0.052,-0.372 -0.344,-0.665 -0.716,-0.716l-2.116,-0.294c-0.498,-0.07 -0.824,-0.557 -0.697,-1.044l0.538,-2.067c0.095,-0.364 -0.064,-0.746 -0.388,-0.936l-1.842,-1.082c-0.433,-0.254 -0.548,-0.83 -0.245,-1.231l1.288,-1.704c0.226,-0.3 0.226,-0.713 0,-1.013l-1.288,-1.704c-0.303,-0.401 -0.189,-0.976 0.245,-1.231l1.842,-1.082c0.324,-0.19 0.482,-0.572 0.388,-0.936l-0.538,-2.067c-0.127,-0.486 0.199,-0.973 0.697,-1.043l2.116,-0.294c0.372,-0.052 0.665,-0.344 0.716,-0.716l0.294,-2.116c0.069,-0.498 0.557,-0.824 1.043,-0.697l2.067,0.538c0.364,0.095 0.746,-0.064 0.936,-0.388l1.082,-1.842c0.254,-0.433 0.83,-0.548 1.231,-0.245l1.704,1.288c0.3,0.227 0.714,0.227 1.013,0z" fill="url(#color-1)"></path><path d="M22.025,42.091l0.498,-0.848c0.19,-0.324 0.572,-0.482 0.936,-0.388l2.067,0.538c0.486,0.127 0.974,-0.199 1.043,-0.697l0.294,-2.116c0.052,-0.372 0.344,-0.665 0.716,-0.716l2.116,-0.294c0.498,-0.069 0.824,-0.557 0.697,-1.044l-0.538,-2.067c-0.095,-0.364 0.064,-0.746 0.388,-0.936l1.842,-1.082c0.433,-0.254 0.548,-0.83 0.245,-1.231l-1.288,-1.704c-0.227,-0.3 -0.227,-0.713 0,-1.013l1.288,-1.704c0.303,-0.401 0.189,-0.976 -0.245,-1.231l-1.842,-1.081c-0.324,-0.19 -0.482,-0.572 -0.388,-0.936l0.538,-2.067c0.127,-0.486 -0.199,-0.974 -0.697,-1.043l-2.116,-0.294c-0.372,-0.052 -0.665,-0.344 -0.716,-0.716l-0.294,-2.116c-0.069,-0.498 -0.557,-0.824 -1.043,-0.697l-2.067,0.538c-0.364,0.095 -0.746,-0.064 -0.936,-0.388l-1.081,-1.842c-0.254,-0.433 -0.83,-0.548 -1.231,-0.245l-1.704,1.288c-0.3,0.227 -0.713,0.227 -1.013,0l-1.704,-1.288c-0.401,-0.303 -0.976,-0.189 -1.231,0.245l-1.082,1.842c-0.19,0.324 -0.572,0.482 -0.936,0.388l-2.067,-0.538c-0.487,-0.128 -0.974,0.198 -1.044,0.696l-0.294,2.116c-0.052,0.372 -0.344,0.665 -0.716,0.716l-0.196,0.027c-0.132,0.929 -0.224,1.871 -0.224,2.837c0,8.964 5.898,16.55 14.025,19.091z" fill="url(#color-2)"></path><path d="M32.33,26.789c0.303,-0.401 0.189,-0.976 -0.245,-1.231l-1.842,-1.081c-0.324,-0.19 -0.482,-0.572 -0.388,-0.936l0.538,-2.067c0.127,-0.486 -0.199,-0.974 -0.697,-1.043l-2.116,-0.294c-0.372,-0.052 -0.665,-0.344 -0.716,-0.716l-0.294,-2.116c-0.069,-0.498 -0.557,-0.824 -1.043,-0.697l-2.067,0.538c-0.364,0.095 -0.746,-0.064 -0.936,-0.388l-1.081,-1.842c-0.254,-0.433 -0.83,-0.548 -1.231,-0.245l-1.704,1.288c-0.3,0.227 -0.713,0.227 -1.013,0l-1.704,-1.288c-0.401,-0.303 -0.976,-0.189 -1.231,0.245l-1.082,1.842c-0.19,0.324 -0.572,0.482 -0.936,0.388l-0.442,-0.115c-0.7,1.859 -1.1,3.865 -1.1,5.969c0,8.942 6.908,16.255 15.676,16.933l0.188,-1.353c0.052,-0.372 0.344,-0.665 0.716,-0.716l2.116,-0.294c0.498,-0.069 0.824,-0.557 0.697,-1.044l-0.538,-2.067c-0.095,-0.364 0.064,-0.746 0.388,-0.936l1.842,-1.082c0.433,-0.254 0.548,-0.83 0.245,-1.231l-1.288,-1.704c-0.227,-0.3 -0.227,-0.713 0,-1.013z" fill="#0262eb"></path><path d="M28,6c-9.389,0 -17,7.611 -17,17c0,9.389 7.611,17 17,17c9.389,0 17,-7.611 17,-17c0,-9.389 -7.611,-17 -17,-17z" fill="url(#color-3)"></path><path d="M28,6.425c9.139,0 16.575,7.436 16.575,16.575c0,9.139 -7.436,16.575 -16.575,16.575c-9.139,0 -16.575,-7.436 -16.575,-16.575c0,-9.139 7.436,-16.575 16.575,-16.575zM28,6c-9.389,0 -17,7.611 -17,17c0,9.389 7.611,17 17,17c9.389,0 17,-7.611 17,-17c0,-9.389 -7.611,-17 -17,-17z" fill="url(#color-4)"></path><g fill="#0161eb"><path d="M36.729,12.953v0c-0.793,-0.768 -2.062,-0.746 -2.829,0.044l-5.936,6.125c-2.506,-0.638 -4.964,1.271 -4.964,3.878c0,2.653 2.546,4.582 5.095,3.839l4.185,3.512c0.918,0.771 2.326,0.695 3.14,-0.274c0.791,-0.943 0.67,-2.348 -0.275,-3.139l-4.172,-3.502c0.069,-0.576 -0.004,-1.096 -0.133,-1.532l5.933,-6.122c0.768,-0.794 0.75,-2.058 -0.044,-2.829z" opacity="0.05"></path><path d="M36.554,13.133c0,0 0,-0.001 0,0c-0.436,-0.422 -1.045,-0.556 -1.573,-0.406c-0.332,0.039 -0.86,0.401 -1.109,0.659l-5.771,5.955c-0.115,-0.029 -0.297,0.019 -0.411,0.003c-2.264,-0.468 -4.44,1.289 -4.44,3.656c0,2.527 2.47,4.356 4.894,3.554l4.073,3.418c0.26,0.218 0.796,0.534 1.117,0.569c0.659,0.167 1.406,-0.042 1.895,-0.625c0.455,-0.543 0.551,-1.268 0.315,-1.865c-0.076,-0.348 -0.534,-0.902 -0.829,-1.148l-3.728,-3.129c0.004,-0.015 -0.271,-0.294 -0.263,-0.348c0.065,-0.517 0.011,-1.034 -0.142,-1.508c-0.009,-0.023 0.14,-0.212 0.128,-0.237l5.642,-5.822c0.271,-0.28 0.655,-0.888 0.666,-1.249c0.106,-0.507 -0.049,-1.075 -0.464,-1.477z" opacity="0.1"></path><path d="M36.38,13.312c0,0 0,-0.001 0,0c-0.423,-0.41 -1.04,-0.495 -1.52,-0.263c-0.221,0.026 -0.85,0.553 -1.016,0.724l-5.607,5.785c-0.077,-0.019 -0.289,0.106 -0.365,0.096c-2.188,-0.622 -4.372,1.058 -4.372,3.346c0,2.401 2.395,4.131 4.692,3.268l3.961,3.324c0.173,0.145 0.829,0.606 1.043,0.63c0.613,0.257 1.369,0.094 1.84,-0.467c0.449,-0.535 0.49,-1.276 0.159,-1.82c-0.051,-0.232 -0.717,-0.903 -0.913,-1.068l-3.668,-3.079c0.009,-0.031 -0.158,-0.266 -0.143,-0.374c0.06,-0.459 0.027,-0.972 -0.151,-1.484c-0.018,-0.047 0.067,-0.205 0.043,-0.254l5.564,-5.741c0.181,-0.187 0.76,-0.926 0.767,-1.167c0.201,-0.47 0.095,-1.06 -0.314,-1.456z" opacity="0.15"></path><path d="M36.206,13.492c0,-0.001 0,-0.001 0,0c-0.41,-0.397 -1.035,-0.435 -1.467,-0.121c-0.111,0.013 -0.84,0.705 -0.923,0.79l-5.442,5.615c-0.038,-0.01 -0.28,0.193 -0.318,0.188c-2.114,-0.775 -4.306,0.828 -4.306,3.036c0,2.275 2.319,3.905 4.491,2.983l3.849,3.229c0.087,0.073 0.863,0.679 0.97,0.691c0.566,0.347 1.331,0.231 1.785,-0.309c0.442,-0.527 0.429,-1.285 0.004,-1.775c-0.025,-0.116 -0.899,-0.905 -0.997,-0.988l-3.608,-3.028c0.013,-0.046 -0.046,-0.238 -0.022,-0.401c0.055,-0.4 0.042,-0.91 -0.16,-1.46c-0.027,-0.07 -0.005,-0.197 -0.042,-0.271l5.486,-5.661c0.09,-0.093 0.866,-0.964 0.869,-1.084c0.292,-0.433 0.234,-1.044 -0.169,-1.434z" opacity="0.2"></path><path d="M36.032,13.671c-0.397,-0.384 -1.03,-0.374 -1.414,0.022l-6.379,6.582c-2.039,-0.93 -4.239,0.597 -4.239,2.725c0,2.149 2.243,3.679 4.29,2.698l4.633,3.887c0.52,0.436 1.294,0.368 1.73,-0.151c0.436,-0.52 0.368,-1.294 -0.151,-1.73l-4.629,-3.884c0.049,-0.172 0.351,-1.052 -0.198,-2.151l6.38,-6.583c0.384,-0.398 0.374,-1.031 -0.023,-1.415z" opacity="0.4"></path></g><path d="M36.032,13.671c-0.397,-0.384 -1.03,-0.374 -1.414,0.022l-6.379,6.582c-0.378,-0.173 -0.796,-0.275 -1.239,-0.275c-1.657,0 -3,1.343 -3,3c0,1.657 1.343,3 3,3c0.464,0 0.898,-0.114 1.29,-0.302l4.633,3.887c0.52,0.436 1.294,0.368 1.73,-0.151c0.436,-0.52 0.368,-1.294 -0.151,-1.73l-4.629,-3.884c0.074,-0.263 0.127,-0.534 0.127,-0.82c0,-0.481 -0.124,-0.929 -0.325,-1.332l6.38,-6.583c0.384,-0.397 0.374,-1.03 -0.023,-1.414zM27,24c-0.552,0 -1,-0.448 -1,-1c0,-0.552 0.448,-1 1,-1c0.552,0 1,0.448 1,1c0,0.552 -0.448,1 -1,1z" fill="#ffffff"></path></g></g></svg>