<svg xmlns="http://www.w3.org/2000/svg" xmlns:xlink="http://www.w3.org/1999/xlink" viewBox="0,0,256,256" width="480px" height="480px" fill-rule="nonzero"><defs><linearGradient x1="24" y1="4.075" x2="24" y2="53.879" gradientUnits="userSpaceOnUse" id="color-1"><stop offset="0" stop-color="#bcd8ff"></stop><stop offset="0.325" stop-color="#0363eb"></stop><stop offset="1" stop-color="#03cbeb"></stop></linearGradient><linearGradient x1="24" y1="11.812" x2="24" y2="23.623" gradientUnits="userSpaceOnUse" id="color-2"><stop offset="0" stop-color="#a6eeff" stop-opacity="0.27843"></stop><stop offset="1" stop-color="#b4b3ff" stop-opacity="0.65098"></stop></linearGradient><linearGradient x1="24" y1="10" x2="24" y2="25" gradientUnits="userSpaceOnUse" id="color-3"><stop offset="0" stop-color="#a6eeff" stop-opacity="0.27843"></stop><stop offset="1" stop-color="#b4b3ff" stop-opacity="0.65098"></stop></linearGradient><linearGradient x1="24" y1="5.739" x2="24" y2="11.486" gradientUnits="userSpaceOnUse" id="color-4"><stop offset="0" stop-color="#bcd8ff"></stop><stop offset="0.325" stop-color="#0363eb"></stop><stop offset="1" stop-color="#03cbeb"></stop></linearGradient></defs><g fill="none" fill-rule="nonzero" stroke="none" stroke-width="1" stroke-linecap="butt" stroke-linejoin="miter" stroke-miterlimit="10" stroke-dasharray="" stroke-dashoffset="0" font-family="none" font-weight="none" font-size="none" text-anchor="none" style="mix-blend-mode: normal"><g transform="scale(5.33333,5.33333)"><path d="M45,13.06v6.94c0,0.45 -0.15,0.86 -0.4,1.2c-0.21,0.27 -0.48,0.49 -0.8,0.63c-0.25,0.11 -0.52,0.17 -0.8,0.17h-6v2c0,0.55 -0.45,1 -1,1h-3c-0.55,0 -1,-0.45 -1,-1v-2h-16v2c0,0.55 -0.45,1 -1,1h-3c-0.55,0 -1,-0.45 -1,-1v-2h-6c-0.28,0 -0.55,-0.06 -0.8,-0.17c-0.32,-0.14 -0.59,-0.36 -0.8,-0.63c-0.25,-0.34 -0.4,-0.75 -0.4,-1.2v-6.94c0.76,-0.78 1.83,-1.26 3,-1.26h36c1.17,0 2.24,0.48 3,1.26z" fill-opacity="0.81176" fill="#0363eb" opacity="0.1"></path><path d="M45,14.4v5.6c0,0.45 -0.15,0.86 -0.4,1.2c-0.21,0.27 -0.48,0.49 -0.8,0.63c-0.25,0.11 -0.52,0.17 -0.8,0.17h-6v2c0,0.55 -0.45,1 -1,1h-3c-0.55,0 -1,-0.45 -1,-1v-2h-16v2c0,0.55 -0.45,1 -1,1h-3c-0.55,0 -1,-0.45 -1,-1v-2h-6c-0.28,0 -0.55,-0.06 -0.8,-0.17c-0.32,-0.14 -0.59,-0.36 -0.8,-0.63c-0.25,-0.34 -0.4,-0.75 -0.4,-1.2v-5.6c0.57,-1.07 1.7,-1.8 3,-1.8h36c1.3,0 2.43,0.73 3,1.8z" fill-opacity="0.81176" fill="#0363eb" opacity="0.2"></path><path d="M44.6,16v5.2c-0.21,0.27 -0.48,0.49 -0.8,0.63c-0.25,0.11 -0.52,0.17 -0.8,0.17h-6v2c0,0.55 -0.45,1 -1,1h-3c-0.55,0 -1,-0.45 -1,-1v-2h-16v2c0,0.55 -0.45,1 -1,1h-3c-0.55,0 -1,-0.45 -1,-1v-2h-6c-0.28,0 -0.55,-0.06 -0.8,-0.17c-0.32,-0.14 -0.59,-0.36 -0.8,-0.63v-5.2c0,-1.43 1.17,-2.6 2.6,-2.6h36c1.43,0 2.6,1.17 2.6,2.6z" fill-opacity="0.81176" fill="#0363eb" opacity="0.3"></path><path d="M43.8,16v5.83c-0.25,0.11 -0.52,0.17 -0.8,0.17h-6v2c0,0.55 -0.45,1 -1,1h-3c-0.55,0 -1,-0.45 -1,-1v-2h-16v2c0,0.55 -0.45,1 -1,1h-3c-0.55,0 -1,-0.45 -1,-1v-2h-6c-0.28,0 -0.55,-0.06 -0.8,-0.17v-5.83c0,-0.99 0.81,-1.8 1.8,-1.8h36c0.99,0 1.8,0.81 1.8,1.8z" fill-opacity="0.81176" fill="#0363eb" opacity="0.4"></path><path d="M41,41h-34c-1.105,0 -2,-0.895 -2,-2v-23c0,-0.552 0.448,-1 1,-1h36c0.552,0 1,0.448 1,1v23c0,1.105 -0.895,2 -2,2z" fill="url(#color-1)"></path><path d="M43,16v8h-4c0,1.66 -1.35,3 -3,3h-3c-1.65,0 -3,-1.34 -3,-3h-12c0,1.66 -1.35,3 -3,3h-3c-1.65,0 -3,-1.34 -3,-3h-4v-8c0,-0.55 0.45,-1 1,-1h36c0.55,0 1,0.45 1,1z" fill-opacity="0.81176" fill="#0363eb" opacity="0.05"></path><path d="M43,16v7.6h-4.4v0.4c0,1.43 -1.17,2.6 -2.6,2.6h-3c-1.43,0 -2.6,-1.17 -2.6,-2.6v-0.4h-12.8v0.4c0,1.43 -1.17,2.6 -2.6,2.6h-3c-1.43,0 -2.6,-1.17 -2.6,-2.6v-0.4h-4.4v-7.6c0,-0.55 0.45,-1 1,-1h36c0.55,0 1,0.45 1,1z" fill-opacity="0.81176" fill="#0363eb" opacity="0.1"></path><path d="M43,16v7.2h-4.8v0.8c0,1.21 -0.99,2.2 -2.2,2.2h-3c-1.21,0 -2.2,-0.99 -2.2,-2.2v-0.8h-13.6v0.8c0,1.21 -0.99,2.2 -2.2,2.2h-3c-1.21,0 -2.2,-0.99 -2.2,-2.2v-0.8h-4.8v-7.2c0,-0.55 0.45,-1 1,-1h36c0.55,0 1,0.45 1,1z" fill-opacity="0.81176" fill="#0363eb" opacity="0.2"></path><path d="M43,16v6.8h-5.2v1.2c0,0.99 -0.81,1.8 -1.8,1.8h-3c-0.99,0 -1.8,-0.81 -1.8,-1.8v-1.2h-14.4v1.2c0,0.99 -0.81,1.8 -1.8,1.8h-3c-0.99,0 -1.8,-0.81 -1.8,-1.8v-1.2h-5.2v-6.8c0,-0.55 0.45,-1 1,-1h36c0.55,0 1,0.45 1,1z" fill-opacity="0.81176" fill="#0363eb" opacity="0.3"></path><path d="M43,16v6.4h-5.6v1.6c0,0.77 -0.63,1.4 -1.4,1.4h-3c-0.77,0 -1.4,-0.63 -1.4,-1.4v-1.6h-15.2v1.6c0,0.77 -0.63,1.4 -1.4,1.4h-3c-0.77,0 -1.4,-0.63 -1.4,-1.4v-1.6h-5.6v-6.4c0,-0.55 0.45,-1 1,-1h36c0.55,0 1,0.45 1,1z" fill-opacity="0.81176" fill="#0363eb" opacity="0.4"></path><path d="M43,10h-38c-1.105,0 -2,0.895 -2,2v8c0,1.105 0.895,2 2,2h6v2c0,0.552 0.448,1 1,1h3c0.552,0 1,-0.448 1,-1v-2h16v2c0,0.552 0.448,1 1,1h3c0.552,0 1,-0.448 1,-1v-2h6c1.105,0 2,-0.895 2,-2v-8c0,-1.105 -0.895,-2 -2,-2z" fill="url(#color-2)"></path><path d="M43,10h-38c-1.105,0 -2,0.895 -2,2v8c0,1.105 0.895,2 2,2h6v2c0,0.552 0.448,1 1,1h3c0.552,0 1,-0.448 1,-1v-2h16v2c0,0.552 0.448,1 1,1h3c0.552,0 1,-0.448 1,-1v-2h6c1.105,0 2,-0.895 2,-2v-8c0,-1.105 -0.895,-2 -2,-2zM44.5,20c0,0.827 -0.673,1.5 -1.5,1.5h-6v-1.5c0,-0.552 -0.448,-1 -1,-1h-3c-0.552,0 -1,0.448 -1,1v1.5h-16v-1.5c0,-0.552 -0.448,-1 -1,-1h-3c-0.552,0 -1,0.448 -1,1v1.5h-6c-0.827,0 -1.5,-0.673 -1.5,-1.5v-8c0,-0.827 0.673,-1.5 1.5,-1.5h38c0.827,0 1.5,0.673 1.5,1.5z" fill="url(#color-3)"></path><path d="M30,10h-12v-2c0,-0.552 0.448,-1 1,-1h10c0.552,0 1,0.448 1,1z" fill="url(#color-4)"></path><rect x="18" y="8" width="12" height="2" fill-opacity="0.81176" fill="#0363eb" opacity="0.05"></rect><rect x="18" y="8.4" width="12" height="1.6" fill-opacity="0.81176" fill="#0363eb" opacity="0.1"></rect><rect x="18" y="8.8" width="12" height="1.2" fill-opacity="0.81176" fill="#0363eb" opacity="0.2"></rect><rect x="18" y="9.2" width="12" height="0.8" fill-opacity="0.81176" fill="#0363eb" opacity="0.3"></rect><rect x="18" y="9.6" width="12" height="0.4" fill-opacity="0.81176" fill="#0363eb" opacity="0.4"></rect></g></g></svg>